<?xml version="1.0" encoding="utf-8"?>
<!-- Generator: Adobe Illustrator 16.0.0, SVG Export Plug-In . SVG Version: 6.00 Build 0)  -->
<!DOCTYPE svg PUBLIC "-//W3C//DTD SVG 1.1//EN" "http://www.w3.org/Graphics/SVG/1.1/DTD/svg11.dtd">
<svg version="1.1" id="Layer_1" xmlns="http://www.w3.org/2000/svg" xmlns:xlink="http://www.w3.org/1999/xlink" x="0px" y="0px"
	 width="24px" height="24px" viewBox="0 0 24 24" enable-background="new 0 0 24 24" xml:space="preserve">
<g>
	<defs>
		<rect id="SVGID_1_" width="24" height="24"/>
	</defs>
	<clipPath id="SVGID_2_">
		<use xlink:href="#SVGID_1_"  overflow="visible"/>
	</clipPath>
	<path clip-path="url(#SVGID_2_)" fill="#FFFFFF" d="M20,4h-3.172l-1.414-1.414C15.053,2.224,14.553,2,14,2h-4
		C9.449,2,8.949,2.224,8.586,2.586L7.172,4H4C2.896,4,2,4.896,2,6v12c0,1.105,0.896,2,2,2h16c1.104,0,2-0.895,2-2V6
		C22,4.896,21.104,4,20,4 M12,17c-2.76,0-5-2.238-5-5s2.24-5,5-5c2.762,0,5,2.238,5,5S14.762,17,12,17 M12,8.5
		c-1.932,0-3.5,1.567-3.5,3.5c0,1.934,1.568,3.5,3.5,3.5c1.934,0,3.5-1.566,3.5-3.5C15.5,10.067,13.934,8.5,12,8.5"/>
</g>
</svg>
