<?xml version="1.0" encoding="utf-8"?>
<!-- Generator: Adobe Illustrator 16.0.0, SVG Export Plug-In . SVG Version: 6.00 Build 0)  -->
<!DOCTYPE svg PUBLIC "-//W3C//DTD SVG 1.1//EN" "http://www.w3.org/Graphics/SVG/1.1/DTD/svg11.dtd">
<svg version="1.1" id="Layer_1" xmlns="http://www.w3.org/2000/svg" xmlns:xlink="http://www.w3.org/1999/xlink" x="0px" y="0px"
	 width="24px" height="24px" viewBox="0 0 24 24" enable-background="new 0 0 24 24" xml:space="preserve">
<g>
	<g>
		<path fill="#F2F2F2" d="M15.757,14.254h-0.794l-0.275-0.274c0.976-1.136,1.567-2.61,1.567-4.226c0-3.59-2.91-6.5-6.5-6.5
			s-6.5,2.91-6.5,6.5s2.91,6.5,6.5,6.5c1.614,0,3.088-0.593,4.225-1.567l0.276,0.275v0.792l4.999,4.991l1.49-1.491L15.757,14.254z
			 M9.755,14.254c-2.485,0-4.5-2.015-4.5-4.5s2.015-4.5,4.5-4.5s4.5,2.015,4.5,4.5S12.24,14.254,9.755,14.254z"/>
	</g>
</g>
</svg>
